# xmcd
#
# Track frame offsets: 
#        150
#        15952
#        47518
#        65212
#        92604
#        121495
#        141302
#        180553
#        198323
#        235688
#        257257
#        282302
#
# Disc length: 4264 seconds
#
# Revision: 1
# Processed by: cddbd v1.5.2PL0 Copyright (c) Steve Scherf et al.
# Submitted via: ExactAudioCopy v0.99pb3
#
DISCID=9f10a60c
DTITLE=Egidijus Buozis and Valerijus Ramoska - Solos and Duos
DYEAR=2000
DGENRE=Jazz
TTITLE0=A Child is Born
TTITLE1=Blue in Green
TTITLE2=Chicken Feathers
TTITLE3=Easy Living
TTITLE4=Spain
TTITLE5=For Heaven's Sake
TTITLE6=Body and Soul
TTITLE7=In Your Own Sweet Way
TTITLE8='Round Midnight
TTITLE9=Doxy
TTITLE10=Misty
TTITLE11=La Fiesta
EXTD=
EXTT0=
EXTT1=
EXTT2=
EXTT3=
EXTT4=
EXTT5=
EXTT6=
EXTT7=
EXTT8=
EXTT9=
EXTT10=
EXTT11=
PLAYORDER=
